# xmcd
#
# Track frame offsets:
#	150
#	19847
#	37842
#	55662
#	75782
#	93610
#	110165
#	124867
#	134777
#	149187
#	184557
#	201425
#	220162
#	235460
#	252940
#	268640
#
# Disc length: 3852 seconds
#
# Revision: 0
# Processed by: cddbd v1.5.2PL0 Copyright (c) Steve Scherf et al.
# Submitted via: audiograbber 1.83.01
#
DISCID=f00f0a10
DTITLE=Janis Joplin - Mercedes Benz - Best [Zounds]
DYEAR=1995
DGENRE=Blues/Rock
TTITLE0=Kozmic Blues
TTITLE1=Summertime
TTITLE2=Cry Baby
TTITLE3=Piece Of My Heart
TTITLE4=Try (Just A Little Bit Harder)
TTITLE5=Move Over
TTITLE6=Trust Me
TTITLE7=Mercedes Benz
TTITLE8=Down On Me [live]
TTITLE9=Ball And Chain [live]
TTITLE10=Bye, Bye Baby [live]
TTITLE11=One Good Man
TTITLE12=Get It While You Can
TTITLE13=Halfmoon
TTITLE14=A Woman Left Lonely
TTITLE15=Me And Bobby McGee
EXTD=
EXTT0=
EXTT1=
EXTT2=
EXTT3=
EXTT4=
EXTT5=
EXTT6=
EXTT7=
EXTT8=
EXTT9=
EXTT10=
EXTT11=
EXTT12=
EXTT13=
EXTT14=
EXTT15=
PLAYORDER=
